<?xml version="1.0" encoding="UTF-8"?>
<svg version="1.1" xmlns="http://www.w3.org/2000/svg" width="475" height="475">
<path d="M0 0 C1.33783539 -0.00855011 1.33783539 -0.00855011 2.70269775 -0.01727295 C4.58515257 -0.02666574 6.4676234 -0.03323398 8.35009766 -0.03710938 C11.15428583 -0.04670783 13.95770527 -0.0777415 16.76171875 -0.109375 C29.5805092 -0.18553293 41.82953401 1.0336241 54.453125 3.203125 C55.88966454 3.4344065 57.32626602 3.66530365 58.76293945 3.89575195 C68.26961298 5.48389977 77.28489813 8.05318385 86.390625 11.140625 C87.09702118 11.37756073 87.80341736 11.61449646 88.53121948 11.85861206 C108.35833167 18.55008528 127.17296684 27.33984069 144.453125 39.203125 C145.06720215 39.62335937 145.6812793 40.04359375 146.31396484 40.4765625 C155.89012722 47.07908762 165.27744898 53.89804979 173.453125 62.203125 C174.69927515 63.44005831 175.94678259 64.67562505 177.1953125 65.91015625 C178.57296895 67.2785932 179.95057194 68.64708397 181.328125 70.015625 C182.01003906 70.68916016 182.69195312 71.36269531 183.39453125 72.05664062 C194.05990097 82.67122287 203.31171204 94.35396996 211.703125 106.828125 C212.28477417 107.68676147 212.28477417 107.68676147 212.87817383 108.56274414 C216.42195294 113.91630416 219.44822579 119.53385566 222.453125 125.203125 C222.8975293 126.0398877 223.34193359 126.87665039 223.79980469 127.73876953 C239.40747441 157.65248822 249.48225731 191.84121514 249.65625 225.75 C249.66195007 226.64189026 249.66765015 227.53378052 249.67352295 228.45269775 C249.68291574 230.33515257 249.68948398 232.2176234 249.69335938 234.10009766 C249.70295783 236.90428583 249.7339915 239.70770527 249.765625 242.51171875 C249.84178293 255.3305092 248.6226259 267.57953401 246.453125 280.203125 C246.2218435 281.63966454 245.99094635 283.07626602 245.76049805 284.51293945 C244.17235023 294.01961298 241.60306615 303.03489813 238.515625 312.140625 C238.27868927 312.84702118 238.04175354 313.55341736 237.79763794 314.28121948 C231.10616472 334.10833167 222.31640931 352.92296684 210.453125 370.203125 C209.82277344 371.12424072 209.82277344 371.12424072 209.1796875 372.06396484 C202.57716238 381.64012722 195.75820021 391.02744898 187.453125 399.203125 C186.21619169 400.44927515 184.98062495 401.69678259 183.74609375 402.9453125 C182.3776568 404.32296895 181.00916603 405.70057194 179.640625 407.078125 C178.96708984 407.76003906 178.29355469 408.44195312 177.59960938 409.14453125 C166.98502713 419.80990097 155.30228004 429.06171204 142.828125 437.453125 C142.25570068 437.84089111 141.68327637 438.22865723 141.09350586 438.62817383 C135.73994584 442.17195294 130.12239434 445.19822579 124.453125 448.203125 C123.6163623 448.6475293 122.77959961 449.09193359 121.91748047 449.54980469 C92.00376178 465.15747441 57.81503486 475.23225731 23.90625 475.40625 C23.01435974 475.41195007 22.12246948 475.41765015 21.20355225 475.42352295 C19.32109743 475.43291574 17.4386266 475.43948398 15.55615234 475.44335938 C12.75196417 475.45295783 9.94854473 475.4839915 7.14453125 475.515625 C-5.6742592 475.59178293 -17.92328401 474.3726259 -30.546875 472.203125 C-31.98341454 471.9718435 -33.42001602 471.74094635 -34.85668945 471.51049805 C-44.36336298 469.92235023 -53.37864813 467.35306615 -62.484375 464.265625 C-63.54396927 463.91022141 -63.54396927 463.91022141 -64.62496948 463.54763794 C-84.45208167 456.85616472 -103.26671684 448.06640931 -120.546875 436.203125 C-121.46799072 435.57277344 -121.46799072 435.57277344 -122.40771484 434.9296875 C-131.98387722 428.32716238 -141.37119898 421.50820021 -149.546875 413.203125 C-150.79302515 411.96619169 -152.04053259 410.73062495 -153.2890625 409.49609375 C-154.66671895 408.1276568 -156.04432194 406.75916603 -157.421875 405.390625 C-158.44474609 404.38032227 -158.44474609 404.38032227 -159.48828125 403.34960938 C-170.15365097 392.73502713 -179.40546204 381.05228004 -187.796875 368.578125 C-188.18464111 368.00570068 -188.57240723 367.43327637 -188.97192383 366.84350586 C-192.51570294 361.48994584 -195.54197579 355.87239434 -198.546875 350.203125 C-198.9912793 349.3663623 -199.43568359 348.52959961 -199.89355469 347.66748047 C-215.50122441 317.75376178 -225.57600731 283.56503486 -225.75 249.65625 C-225.75570007 248.76435974 -225.76140015 247.87246948 -225.76727295 246.95355225 C-225.77666574 245.07109743 -225.78323398 243.1886266 -225.78710938 241.30615234 C-225.79670783 238.50196417 -225.8277415 235.69854473 -225.859375 232.89453125 C-225.93553293 220.0757408 -224.7163759 207.82671599 -222.546875 195.203125 C-222.3155935 193.76658546 -222.08469635 192.32998398 -221.85424805 190.89331055 C-220.26610023 181.38663702 -217.69681615 172.37135187 -214.609375 163.265625 C-214.37243927 162.55922882 -214.13550354 161.85283264 -213.89138794 161.12503052 C-207.19991472 141.29791833 -198.41015931 122.48328316 -186.546875 105.203125 C-186.12664062 104.58904785 -185.70640625 103.9749707 -185.2734375 103.34228516 C-178.67091238 93.76612278 -171.85195021 84.37880102 -163.546875 76.203125 C-162.30994169 74.95697485 -161.07437495 73.70946741 -159.83984375 72.4609375 C-158.4714068 71.08328105 -157.10291603 69.70567806 -155.734375 68.328125 C-155.06083984 67.64621094 -154.38730469 66.96429688 -153.69335938 66.26171875 C-143.07877713 55.59634903 -131.39603004 46.34453796 -118.921875 37.953125 C-118.34945068 37.56535889 -117.77702637 37.17759277 -117.18725586 36.77807617 C-111.83369584 33.23429706 -106.21614434 30.20802421 -100.546875 27.203125 C-99.29173096 26.53651855 -99.29173096 26.53651855 -98.01123047 25.85644531 C-68.09751178 10.24877559 -33.90878486 0.17399269 0 0 Z " fill="#3FA8C3" transform="translate(225.546875,-0.203125)"/>
<path d="M0 0 C1.82833374 0.00918457 1.82833374 0.00918457 3.69360352 0.01855469 C14.32431317 0.20012104 24.25298195 1.6772065 34.5 4.4375 C35.72976562 4.76105469 36.95953125 5.08460937 38.2265625 5.41796875 C44.35708915 7.1767264 50.11522571 9.44164395 55.8671875 12.19140625 C57.83365091 13.12212113 59.82867194 13.99292844 61.8359375 14.83203125 C65.77334531 16.50476176 69.49960271 18.51067944 73.25 20.5625 C78.2317235 23.31030707 78.2317235 23.31030707 83.5 25.4375 C83.66242188 24.14005859 83.66242188 24.14005859 83.828125 22.81640625 C85.30464941 15.39086199 89.22368614 6.94357149 95.5 2.4375 C98.57446827 2.03229825 100.08272571 2.19456634 102.78125 3.765625 C111.30533759 11.14916566 114.90242979 20.1059923 115.703125 31.26953125 C115.83096236 39.39785659 114.71464317 46.94370622 113.15625 54.8828125 C112.40922626 58.32673161 112.40922626 58.32673161 112.5 61.4375 C112.81710937 60.90382812 113.13421875 60.37015625 113.4609375 59.8203125 C120.80528861 48.09369663 132.06273251 36.82474664 145.5 32.4375 C152.10932076 31.49895669 157.36869914 31.98828299 162.84375 35.9375 C166.82796793 39.54584832 169.20381346 43.65757779 169.7734375 49.00390625 C170.1019694 58.69559718 167.57715034 65.2802821 161.1875 72.5625 C153.12620126 80.11805186 141.86185749 84.16533448 131.5 87.4375 C131.17 88.0975 130.84 88.7575 130.5 89.4375 C131.35207031 89.5303125 132.20414062 89.623125 133.08203125 89.71875 C147.63219349 92.77844126 161.27104433 105.71511975 169.5 117.4375 C173.90716554 124.43774356 176.68753374 131.02847731 175.5 139.4375 C174.26037454 142.35061984 173.41531706 143.86186727 170.7421875 145.54296875 C164.76446813 147.92780801 157.43764283 147.108871 151.5 144.9375 C140.82576902 140.04514413 132.45196782 132.95972846 124.5 124.4375 C123.84 123.7775 123.18 123.1175 122.5 122.4375 C123.180625 123.860625 123.180625 123.860625 123.875 125.3125 C127.23777465 133.22619014 127.82539366 141.43058252 127.75 149.9375 C127.75773437 150.81019531 127.76546875 151.68289062 127.7734375 152.58203125 C127.75195582 159.83209946 127.48334008 167.33853113 123.5 173.5625 C121.5 175.4375 121.5 175.4375 119.5 175.4375 C119.5 176.0975 119.5 176.7575 119.5 177.4375 C111.04670907 177.89673311 105.26971641 176.84549185 98.5 171.4375 C93.19321263 166.5962203 88.77805707 160.27167122 86.5 153.4375 C83.37590056 160.51879207 83.25243635 167.69207294 82.9375 175.3125 C82.89431641 176.28703125 82.85113281 177.2615625 82.80664062 178.265625 C82.70117726 180.65612802 82.59905825 183.04672444 82.5 185.4375 C77.7967066 184.83248217 73.66774528 183.49509306 69.3125 181.6875 C68.6532251 181.41945557 67.9939502 181.15141113 67.31469727 180.87524414 C63.47639262 179.30085391 59.69647128 177.63178925 55.9375 175.875 C50.71214388 173.44478237 45.34545617 171.5793978 39.90625 169.6875 C35.93720488 168.23096968 32.16604569 166.48622738 28.34375 164.6875 C25.11106055 163.26653761 21.83497887 162.09749265 18.5 160.9375 C3.34529826 155.61019218 -9.5343392 149.50855611 -17.81640625 135.15625 C-22.47217335 124.90382907 -22.47798605 109.86215639 -18.875 99.25 C-18.13533932 97.62120017 -17.34387124 96.01482943 -16.5 94.4375 C-16.07589844 93.5815625 -15.65179688 92.725625 -15.21484375 91.84375 C-9.1014034 80.53643971 0.31350972 74.35133552 12.1875 70.125 C20.84619005 68.27334531 31.15817662 68.26183317 39.5 71.4375 C41.10294922 72.04271484 41.10294922 72.04271484 42.73828125 72.66015625 C60.13628396 79.66794467 74.82883181 92.25777312 84.5 108.4375 C84.85932617 109.03852539 85.21865234 109.63955078 85.58886719 110.25878906 C93.96425165 124.39268188 99.08663755 138.62295123 103.5 154.4375 C106.14 154.7675 108.78 155.0975 111.5 155.4375 C111.35840169 150.6040349 111.2121979 145.77072042 111.0625 140.9375 C111.04043488 140.22233215 111.01836975 139.50716431 110.99563599 138.77032471 C110.75634676 131.10853622 110.49622096 123.45899544 109.9375 115.8125 C109.42372204 108.68284278 109.44105019 101.58257903 109.53686523 94.43896484 C109.54532471 93.5877002 109.55378418 92.73643555 109.5625 91.859375 C109.57990234 90.72387207 109.57990234 90.72387207 109.59765625 89.56542969 C109.49775976 87.38868508 109.0272612 85.54551949 108.5 83.4375 C108.42181364 81.92354304 108.39210091 80.40656493 108.40234375 78.890625 C108.40556641 78.04628906 108.40878906 77.20195313 108.41210938 76.33203125 C108.42048828 75.45933594 108.42886719 74.58664063 108.4375 73.6875 C108.44201172 72.79933594 108.44652344 71.91117187 108.45117188 70.99609375 C108.46292578 68.80986684 108.48086034 66.62367472 108.5 64.4375 C105.86 64.7675 103.22 65.0975 100.5 65.4375 C100.39042969 66.39011719 100.28085937 67.34273438 100.16796875 68.32421875 C100.00941406 69.57847656 99.85085938 70.83273438 99.6875 72.125 C99.46126953 73.98705078 99.46126953 73.98705078 99.23046875 75.88671875 C98.51333526 79.37267782 97.51965188 81.54358786 95.5 84.4375 C93.85 84.1075 92.2 83.7775 90.5 83.4375 C90.5 84.0975 90.5 84.7575 90.5 85.4375 C81.71685834 83.68087167 74.83779944 78.16195117 67.75 72.9375 C50.97710183 61.11660034 31.48223693 56.78792504 11.18359375 59.77880859 C6.82801427 60.6421037 2.67044039 61.92904284 -1.5 63.4375 C-2.33402344 63.73785156 -3.16804687 64.03820312 -4.02734375 64.34765625 C-19.00065427 70.42645191 -28.77280959 80.14034221 -35.9921875 94.45703125 C-40.08872636 104.33456736 -40.98371333 114.48106933 -40.875 125.0625 C-40.89240234 126.76792969 -40.89240234 126.76792969 -40.91015625 128.5078125 C-40.87397484 139.02454371 -38.64004724 148.14413464 -33.875 157.5 C-33.35667603 158.52287109 -33.35667603 158.52287109 -32.82788086 159.56640625 C-29.5771668 165.71967364 -25.54276667 170.63650981 -20.5 175.4375 C-19.40171875 176.51257813 -19.40171875 176.51257813 -18.28125 177.609375 C-10.16234992 185.21369691 -0.8059575 190.00837676 9.375 194.3125 C10.36878662 194.73813232 11.36257324 195.16376465 12.38647461 195.60229492 C24.40163832 200.71998849 36.46491157 205.73648292 48.8125 210 C55.618576 212.38809684 62.07828189 215.33900147 68.54833984 218.50048828 C70.54574345 219.45946189 72.56048579 220.37050467 74.58203125 221.27734375 C86.33113851 226.65979547 96.276846 233.01897411 102.25 244.9375 C106.92864882 257.54770435 105.97978939 272.23173858 100.5 284.4375 C94.51120365 296.14204728 84.685504 303.04840851 72.5 307.4375 C68.49109586 308.60209785 64.66067058 309.12930218 60.5 309.4375 C59.76861816 309.49196289 59.03723633 309.54642578 58.28369141 309.60253906 C45.65470105 310.41271032 35.9334961 308.80152669 24.5 303.4375 C23.69175781 303.09332031 22.88351563 302.74914062 22.05078125 302.39453125 C-2.87762152 291.17919877 -18.92674901 262.54489327 -28.21484375 238.19921875 C-31.67561002 228.06937705 -34.32498054 218.25391154 -33.5 207.4375 C-36.47 207.4375 -39.44 207.4375 -42.5 207.4375 C-42.5 208.4275 -42.5 209.4175 -42.5 210.4375 C-54.59777045 210.77518469 -65.76437743 210.75108755 -77.5 207.4375 C-76.55640625 208.16453125 -76.55640625 208.16453125 -75.59375 208.90625 C-62.23962633 219.36429866 -51.0779834 231.22267423 -47.5 248.4375 C-46.81603189 254.89195766 -46.4678017 261.01488849 -50.5 266.4375 C-53.63446918 269.12418787 -56.94586048 270.33402539 -61.12890625 270.16796875 C-76.07150774 265.56456434 -85.98177642 246.14474001 -93.10546875 233.61328125 C-94.31585262 231.31636134 -94.31585262 231.31636134 -96.5 230.4375 C-96.39558594 231.241875 -96.39558594 231.241875 -96.2890625 232.0625 C-95.5464339 242.81293308 -100.14136638 254.74190019 -107.05078125 262.95703125 C-111.16342655 267.15835893 -114.37457386 269.58141357 -120.25 269.9375 C-123.25717083 269.91146389 -124.92350993 269.85047218 -127.38671875 268.0859375 C-128.98144038 266.26225081 -130.26464605 264.52336243 -131.5 262.4375 C-132.04011719 261.54804688 -132.58023438 260.65859375 -133.13671875 259.7421875 C-134.85586532 255.57485799 -134.95628921 252.14672698 -134.875 247.6875 C-134.86484863 246.88691162 -134.85469727 246.08632324 -134.84423828 245.26147461 C-134.51332491 232.62135347 -129.5626203 222.13702377 -121.5 212.4375 C-122.52738281 212.84742188 -123.55476563 213.25734375 -124.61328125 213.6796875 C-131.87845202 216.5230387 -138.78267652 219.03554608 -146.55859375 220.11328125 C-148.50051711 220.24435955 -148.50051711 220.24435955 -149.5 221.4375 C-158.39282778 222.0573754 -165.68822982 222.33893528 -172.8125 216.5625 C-176.36951332 212.08329804 -177.07640198 208.10545279 -176.5 202.4375 C-174.38142932 195.35663961 -169.42936139 190.6028302 -163.5 186.4375 C-156.79085746 182.98338656 -150.30673757 181.29949606 -142.76171875 181.33984375 C-141.69501953 181.34306641 -140.62832031 181.34628906 -139.52929688 181.34960938 C-137.87510742 181.36217773 -137.87510742 181.36217773 -136.1875 181.375 C-135.06537109 181.37951172 -133.94324219 181.38402344 -132.78710938 181.38867188 C-130.0246849 181.40042687 -127.26237002 181.41685923 -124.5 181.4375 C-124.5 180.7775 -124.5 180.1175 -124.5 179.4375 C-125.16 179.251875 -125.82 179.06625 -126.5 178.875 C-130.83290682 176.79881548 -134.01010268 173.69901958 -137.5 170.4375 C-138.345625 169.65375 -139.19125 168.87 -140.0625 168.0625 C-145.94291927 161.72974079 -151.71674571 155.29367661 -153.125 146.5625 C-152.93790499 141.94748969 -150.64359689 139.16781571 -147.4921875 135.953125 C-145.5 134.4375 -145.5 134.4375 -142.0625 133.6875 C-133.31338641 135.52941865 -127.18878127 140.7273187 -120.5 146.4375 C-119.61441406 147.18773437 -118.72882813 147.93796875 -117.81640625 148.7109375 C-112.97203792 152.92906505 -108.86293824 156.94470088 -105.5 162.4375 C-105.5 163.0975 -105.5 163.7575 -105.5 164.4375 C-104.84 164.4375 -104.18 164.4375 -103.5 164.4375 C-103.53480469 163.80585938 -103.56960937 163.17421875 -103.60546875 162.5234375 C-104.03137897 148.44811878 -100.71588579 133.60252423 -91.18359375 122.81640625 C-87.80095715 119.69011443 -85.12642565 117.2416417 -80.5 116.4375 C-80.3649707 115.60299316 -80.22994141 114.76848633 -80.09082031 113.90869141 C-79.46419182 110.22711957 -78.76787993 106.56237077 -78.046875 102.8984375 C-77.90654343 102.18393433 -77.76621185 101.46943115 -77.62162781 100.73327637 C-63.27342413 27.9388306 -63.27342413 27.9388306 -38.87109375 9.96484375 C-26.95421574 2.28856813 -13.98033485 -0.12078043 0 0 Z " fill="#4DAAC8" transform="translate(188.5,47.5625)"/>
<path d="M0 0 C1.04462402 0.00338379 2.08924805 0.00676758 3.16552734 0.01025391 C9.67854077 0.05301762 16.18186051 0.18265173 22.6875 0.5 C23.40220459 0.53077637 24.11690918 0.56155273 24.85327148 0.59326172 C30.92962041 0.94557739 35.79492694 2.1785725 40.625 5.9375 C41.25535156 6.41832031 41.88570312 6.89914063 42.53515625 7.39453125 C45.01889187 9.51455992 47.27082363 11.79746525 49.5625 14.125 C50.80864511 15.3619384 52.0561506 16.59750711 53.3046875 17.83203125 C54.68234395 19.2004682 56.05994694 20.56895897 57.4375 21.9375 C58.11941406 22.61103516 58.80132812 23.28457031 59.50390625 23.97851562 C70.16927597 34.59309787 79.42108704 46.27584496 87.8125 58.75 C88.20026611 59.32242432 88.58803223 59.89484863 88.98754883 60.48461914 C92.53132794 65.83817916 95.55760079 71.45573066 98.5625 77.125 C99.0069043 77.9617627 99.45130859 78.79852539 99.90917969 79.66064453 C115.51684941 109.57436322 125.59163231 143.76309014 125.765625 177.671875 C125.77132507 178.56376526 125.77702515 179.45565552 125.78289795 180.37457275 C125.79229074 182.25702757 125.79885898 184.1394984 125.80273438 186.02197266 C125.81233283 188.82616083 125.8433665 191.62958027 125.875 194.43359375 C125.94941885 207.23997245 124.72959395 219.5115805 122.5625 232.125 C122.35306007 233.36052109 122.35306007 233.36052109 122.13938904 234.6210022 C119.93823002 247.56140498 119.93823002 247.56140498 117.5625 251.125 C117.45292969 250.49851562 117.34335937 249.87203125 117.23046875 249.2265625 C116.99263672 248.00066406 116.99263672 248.00066406 116.75 246.75 C116.59917969 245.93789063 116.44835937 245.12578125 116.29296875 244.2890625 C115.68705058 241.76679359 115.68705058 241.76679359 112.5625 240.125 C102.6104895 238.80420848 93.55195106 241.11172727 85.375 246.875 C84.446875 247.6175 83.51875 248.36 82.5625 249.125 C81.9025 248.795 81.2425 248.465 80.5625 248.125 C81.15998047 247.21621094 81.15998047 247.21621094 81.76953125 246.2890625 C88.41697248 235.77607759 90.69131094 226.63103703 89.5625 214.125 C88.63789324 210.17764036 87.48337913 207.04587913 84.5625 204.125 C82.52823795 203.73016609 82.52823795 203.73016609 80.25 203.75 C79.49074219 203.72164062 78.73148437 203.69328125 77.94921875 203.6640625 C74.59026215 204.31276443 73.00635059 205.76062423 70.5625 208.125 C63.60153252 218.91931133 61.20193718 230.49060329 60.5625 243.125 C57.83820179 240.41084815 55.12820026 237.68489066 52.44140625 234.93359375 C51.33600236 233.80983203 50.23053271 232.686135 49.125 231.5625 C48.30418945 230.71655273 48.30418945 230.71655273 47.46679688 229.85351562 C41.72002252 223.92717145 41.72002252 223.92717145 34.33203125 220.62890625 C31.45079193 220.7151709 29.10304298 220.82094457 26.5625 222.25 C24.96252619 225.2499509 25.00451686 226.71510305 25.5625 230.125 C28.7151088 236.81130219 33.27778445 242.47717185 38.0234375 248.09375 C39.5625 250.125 39.5625 250.125 39.5625 252.125 C38.51191406 252.23457031 37.46132813 252.34414063 36.37890625 252.45703125 C26.17023996 253.53708871 26.17023996 253.53708871 16.45703125 256.734375 C13.62128925 257.31906407 12.09607416 256.44669426 9.5625 255.125 C2.96972714 249.77983907 -2.12575514 242.89784828 -7.17578125 236.140625 C-15.23263617 225.39815178 -24.66661058 218.52725376 -38.1171875 215.52734375 C-40.46114027 215.19940742 -40.46114027 215.19940742 -43.4375 215.125 C-42.86 216.135625 -42.2825 217.14625 -41.6875 218.1875 C-33.52048223 234.95905434 -32.90742208 254.68465645 -38.125 272.45703125 C-44.26201829 289.60780557 -54.32122399 303.52851031 -70.77734375 311.8046875 C-73.97489197 313.30814662 -77.18386087 314.74764032 -80.4375 316.125 C-81.21907471 316.45830322 -82.00064941 316.79160645 -82.8059082 317.13500977 C-100.60885586 323.83237991 -124.41490957 321.96370105 -141.6484375 314.32421875 C-151.0608114 309.89815545 -159.97160826 304.56005127 -168.234375 298.2421875 C-168.89880615 297.73856689 -169.5632373 297.23494629 -170.24780273 296.71606445 C-171.55495443 295.71812801 -172.8519635 294.70672362 -174.13696289 293.68041992 C-177.15387072 291.36765959 -178.90754493 290.1994565 -182.74609375 289.66015625 C-185.66173792 289.88734004 -185.66173792 289.88734004 -187.6875 292.5 C-191.95410439 300.07720613 -191.88533599 309.66817231 -192.4375 318.125 C-195.4075 318.125 -198.3775 318.125 -201.4375 318.125 C-201.70412006 308.82046349 -201.9651297 299.51578866 -202.21980286 290.21091747 C-202.33833694 285.88589687 -202.45849892 281.56093703 -202.58300781 277.23608398 C-203.25449519 253.85921977 -203.58161806 230.51161996 -203.4375 207.125 C-200.4675 207.125 -197.4975 207.125 -194.4375 207.125 C-194.41171875 207.7334375 -194.3859375 208.341875 -194.359375 208.96875 C-192.26012383 241.41172267 -174.2025494 272.6000987 -150.4375 294.125 C-143.39600764 300.02163434 -134.96514181 303.01039375 -126.4375 306.125 C-125.49519531 306.5065625 -124.55289063 306.888125 -123.58203125 307.28125 C-119.28886066 308.43320633 -115.23804849 308.42452419 -110.8125 308.375 C-109.92095215 308.36605713 -109.0294043 308.35711426 -108.11083984 308.34790039 C-92.59604299 308.07603224 -78.84258973 304.45727879 -67.33984375 293.42578125 C-58.0657307 282.20924617 -56.27264133 268.51097945 -57.15185547 254.49316406 C-58.13653016 246.32962178 -62.0464764 238.12009256 -68.2890625 232.6953125 C-78.04450594 225.5649702 -88.33756748 220.70508353 -99.4375 216.125 C-100.42105469 215.70734375 -101.40460938 215.2896875 -102.41796875 214.859375 C-108.41196366 212.32312892 -114.45564816 209.91284217 -120.5 207.5 C-122.22265934 206.80990354 -123.94531545 206.11979903 -125.66796875 205.4296875 C-128.69445646 204.21781788 -131.72317611 203.01244437 -134.75634766 201.81738281 C-153.6297329 194.38024741 -170.01771646 187.67410896 -184.4375 173.125 C-185.43716797 172.17560547 -185.43716797 172.17560547 -186.45703125 171.20703125 C-190.48282668 167.09036008 -193.08406146 162.39752666 -195.6875 157.3125 C-196.01717773 156.6728833 -196.34685547 156.0332666 -196.68652344 155.37426758 C-201.57161994 145.35781971 -202.92550335 135.82432791 -202.8125 124.75 C-202.82410156 123.62078125 -202.83570313 122.4915625 -202.84765625 121.328125 C-202.78578183 103.3020434 -197.14584686 87.51222535 -184.31640625 74.75 C-168.61649901 60.43475215 -148.52807589 57.08689755 -128.04443359 57.93847656 C-112.13749603 59.07660171 -97.64485947 68.28844599 -84.98095703 77.31396484 C-80.32566977 80.60946431 -75.80204406 83.11329598 -70.4375 85.125 C-70.4375 84.465 -70.4375 83.805 -70.4375 83.125 C-68.7875 83.125 -67.1375 83.125 -65.4375 83.125 C-63.39704171 77.69661096 -62.07099124 72.67002279 -61.6484375 66.875 C-61.4375 65.125 -61.4375 65.125 -60.4375 64.125 C-57.76691149 63.98384839 -55.11317762 64.08252893 -52.4375 64.125 C-52.37691406 65.41535156 -52.31632813 66.70570312 -52.25390625 68.03515625 C-52.16944119 69.75261255 -52.08479623 71.47006002 -52 73.1875 C-51.96068359 74.03505859 -51.92136719 74.88261719 -51.88085938 75.75585938 C-51.69515242 79.45571342 -51.44854197 83.05084952 -50.90234375 86.71875 C-50.35773293 90.70951162 -50.37091108 94.54394648 -50.4375 98.5625 C-50.48758497 104.17941512 -50.38189853 109.70814082 -49.9375 115.3125 C-48.97819397 128.54011419 -49.35634709 141.87085728 -49.4375 155.125 C-52.0775 155.125 -54.7175 155.125 -57.4375 155.125 C-59.28210445 150.42125865 -60.87805602 145.72062173 -62.3125 140.875 C-67.49739904 123.96096605 -75.42497969 108.21556701 -87.4375 95.125 C-87.88996094 94.62484375 -88.34242188 94.1246875 -88.80859375 93.609375 C-100.38494073 80.93500053 -115.3113021 71.11205392 -132.84765625 69.88671875 C-147.37060813 69.59159994 -158.2945202 72.96822925 -169.17578125 82.67578125 C-179.49614294 93.42282456 -180.91496116 106.85673796 -180.7109375 120.89453125 C-180.34721807 131.04446404 -176.56488552 138.91584715 -169.4375 146.125 C-163.34539231 151.29561241 -156.93857161 154.52561875 -149.4375 157.125 C-141.88796378 159.77041374 -134.52133087 162.46790312 -127.28125 165.875 C-124.04856055 167.29596239 -120.77247887 168.46500735 -117.4375 169.625 C-113.31166814 171.06258758 -109.3226846 172.56688559 -105.375 174.4375 C-96.63732906 178.55555639 -87.47986055 181.74654946 -78.4375 185.125 C-78.45321045 184.55168945 -78.4689209 183.97837891 -78.48510742 183.38769531 C-78.98567135 162.32599264 -78.98567135 162.32599264 -75.4375 152.125 C-72.70336074 153.49206963 -72.38995703 155.05596497 -71.125 157.8125 C-67.58486973 165.04712668 -62.78841543 171.4778586 -55.4375 175.125 C-50.79436787 176.17457777 -46.17865947 176.73878195 -41.4375 177.125 C-41.4375 176.465 -41.4375 175.805 -41.4375 175.125 C-40.261875 174.135 -40.261875 174.135 -39.0625 173.125 C-33.63246362 166.91924413 -34.07633952 157.74047255 -34.125 149.8125 C-34.12910889 148.44436157 -34.12910889 148.44436157 -34.13330078 147.04858398 C-34.28047455 137.48820955 -36.37481013 129.16659315 -39.4375 120.125 C-38.798125 120.764375 -38.15875 121.40375 -37.5 122.0625 C-37.03722656 122.51882812 -36.57445312 122.97515625 -36.09765625 123.4453125 C-34.89209198 124.66505988 -33.71592422 125.91408287 -32.55859375 127.1796875 C-24.57076859 135.68238168 -13.46810614 144.41051625 -1.42578125 145.36328125 C5.41850526 145.69234213 5.41850526 145.69234213 11.5625 143.125 C14.28221362 138.98479902 14.13588806 134.90826359 13.5625 130.125 C10.27058672 115.96977289 -1.48619659 104.5689358 -13.4375 97.125 C-18.87473505 94.00901378 -24.48479948 91.10923351 -30.4375 89.125 C-30.1075 88.135 -29.7775 87.145 -29.4375 86.125 C-26.95698117 85.05936194 -24.55327282 84.16215329 -22 83.3125 C-9.59142554 78.88617008 -0.41611869 73.37083721 6.5625 61.8125 C8.30049622 55.40363893 8.55636687 49.00198305 6.375 42.6875 C3.40073034 38.48249807 0.37457311 35.10029945 -4.4375 33.125 C-13.85269315 31.69617676 -20.45931522 34.57131863 -28.00390625 39.95703125 C-37.0439887 46.95446912 -43.97732798 54.03195474 -49.4375 64.125 C-50.4878518 60.66852314 -50.12994555 58.73945175 -49.05078125 55.2890625 C-45.47035311 42.65494027 -44.62404544 28.6586364 -49.5625 16.3125 C-50.4375 14.125 -50.4375 14.125 -50.4375 10.125 C-41.55235468 6.77727937 -33.03937596 3.64670444 -23.5625 2.44921875 C-21.45782594 2.34278124 -21.45782594 2.34278124 -20.4375 1.125 C-13.60630349 0.14019807 -6.89362203 -0.03227039 0 0 Z " fill="#03759C" transform="translate(349.4375,47.875)"/>
<path d="M0 0 C1.33783539 -0.00855011 1.33783539 -0.00855011 2.70269775 -0.01727295 C4.58515257 -0.02666574 6.4676234 -0.03323398 8.35009766 -0.03710938 C11.15428583 -0.04670783 13.95770527 -0.0777415 16.76171875 -0.109375 C29.5805092 -0.18553293 41.82953401 1.0336241 54.453125 3.203125 C55.88966454 3.4344065 57.32626602 3.66530365 58.76293945 3.89575195 C68.26961298 5.48389977 77.28489813 8.05318385 86.390625 11.140625 C87.09702118 11.37756073 87.80341736 11.61449646 88.53121948 11.85861206 C114.19659331 20.52044642 136.71043691 33.23583843 158.453125 49.203125 C154.54270626 50.56370884 150.74880213 50.07487711 146.703125 49.765625 C139.09555394 49.2654925 131.5142498 49.08695682 123.890625 49.078125 C122.89256836 49.07369385 121.89451172 49.0692627 120.86621094 49.06469727 C111.04999857 48.44985398 111.04999857 48.44985398 102.453125 51.203125 C100.7282252 51.48104231 98.99772285 51.72431419 97.265625 51.953125 C90.92655288 52.94122977 85.34094991 54.88296065 79.38671875 57.1796875 C76.453125 58.203125 76.453125 58.203125 73.453125 58.203125 C73.123125 58.863125 72.793125 59.523125 72.453125 60.203125 C72.05480469 59.72101562 71.65648437 59.23890625 71.24609375 58.7421875 C70.71628906 58.11054687 70.18648438 57.47890625 69.640625 56.828125 C69.11855469 56.20164063 68.59648437 55.57515625 68.05859375 54.9296875 C65.97781476 52.69196411 64.12609447 51.36682028 61.140625 50.640625 C57.72158679 51.35623765 56.16032645 52.95849227 54.01171875 55.6484375 C50.68208358 61.10603499 48.62700581 67.21338959 46.453125 73.203125 C41.56419895 72.63901815 38.08736107 70.42670999 33.953125 67.953125 C27.01255273 63.91987425 20.03951847 60.8544921 12.453125 58.203125 C11.22851562 57.7184375 10.00390625 57.23375 8.7421875 56.734375 C3.87656368 54.9031143 -1.11237953 53.7423839 -6.171875 52.578125 C-7.08710938 52.3615625 -8.00234375 52.145 -8.9453125 51.921875 C-30.1970233 46.94676351 -54.65947286 45.98979149 -73.98828125 57.44921875 C-101.26947062 76.15036994 -105.91442089 110.69412505 -112.18701172 140.77191162 C-113.54729361 147.2707373 -115.00543101 153.74472358 -116.546875 160.203125 C-116.69946777 160.94747803 -116.85206055 161.69183105 -117.00927734 162.45874023 C-117.82615286 165.1093195 -119.52163574 165.75940753 -121.859375 167.140625 C-130.41005293 172.21449835 -134.862627 181.38599151 -137.5625 190.7109375 C-139.15764827 197.8265499 -140.11620635 204.9263099 -140.546875 212.203125 C-141.206875 212.203125 -141.866875 212.203125 -142.546875 212.203125 C-143.4553471 210.84041685 -144.3593159 209.4745804 -145.24609375 208.09765625 C-152.76852628 197.14156082 -165.79413693 185.05278222 -179.171875 182.515625 C-183.36993567 183.37078551 -184.91408474 184.77031706 -187.4375 188.1484375 C-189.285286 191.57074538 -189.45641187 194.52394579 -188.546875 198.203125 C-187.20183051 201.43804213 -185.4839113 204.28990418 -183.546875 207.203125 C-182.86044922 208.24339844 -182.86044922 208.24339844 -182.16015625 209.3046875 C-177.05333203 216.55218051 -170.7111024 221.82405072 -163.015625 226.16015625 C-162.28859375 226.67642578 -162.28859375 226.67642578 -161.546875 227.203125 C-161.546875 227.863125 -161.546875 228.523125 -161.546875 229.203125 C-162.20582764 229.2124707 -162.86478027 229.22181641 -163.54370117 229.23144531 C-186.85662665 229.09190232 -186.85662665 229.09190232 -206.546875 240.203125 C-211.17779051 245.65808814 -213.03587118 249.99043128 -212.546875 257.203125 C-211.10727522 260.76784827 -209.67428435 263.88652549 -206.546875 266.203125 C-201.98046344 268.04181284 -198.14016293 268.44760881 -193.234375 268.390625 C-192.00074219 268.38417969 -190.76710937 268.37773437 -189.49609375 268.37109375 C-186.6596861 268.53785463 -186.6596861 268.53785463 -185.546875 267.203125 C-183.24020934 266.73583918 -180.92614607 266.30491273 -178.609375 265.890625 C-172.89706784 264.82471815 -167.73130551 263.35596075 -162.40234375 260.97265625 C-160.546875 260.203125 -160.546875 260.203125 -158.546875 260.203125 C-159.64436384 262.58101748 -160.84167144 264.61990617 -162.359375 266.765625 C-170.01524089 278.04795368 -172.36443489 290.79215129 -170.546875 304.203125 C-168.71482276 309.01155748 -166.16196166 312.58803834 -162.546875 316.203125 C-159.97626189 316.85080293 -159.97626189 316.85080293 -157.546875 317.203125 C-157.69125 318.32847656 -157.835625 319.45382812 -157.984375 320.61328125 C-160.77497287 340.24103535 -160.77497287 340.24103535 -156.546875 359.203125 C-156.2065625 360.06164062 -155.86625 360.92015625 -155.515625 361.8046875 C-152.87401982 368.14097018 -149.48379265 373.3239242 -145.21875 378.6953125 C-142.80857161 382.31058008 -142.38298902 384.80726851 -142.88671875 389.09765625 C-143.08394531 390.06058594 -143.28117187 391.02351563 -143.484375 392.015625 C-143.67902344 392.99144531 -143.87367188 393.96726562 -144.07421875 394.97265625 C-144.23019531 395.70871094 -144.38617188 396.44476563 -144.546875 397.203125 C-150.421875 396.328125 -150.421875 396.328125 -151.546875 395.203125 C-153.33525122 395.07788041 -155.12915714 395.02738824 -156.921875 395.015625 C-157.89898437 395.00144531 -158.87609375 394.98726563 -159.8828125 394.97265625 C-162.77474522 395.00770517 -162.77474522 395.00770517 -165.546875 397.203125 C-173.72087315 388.2442065 -181.03260547 378.63346934 -187.796875 368.578125 C-188.18464111 368.00570068 -188.57240723 367.43327637 -188.97192383 366.84350586 C-192.51570294 361.48994584 -195.54197579 355.87239434 -198.546875 350.203125 C-198.9912793 349.3663623 -199.43568359 348.52959961 -199.89355469 347.66748047 C-215.50122441 317.75376178 -225.57600731 283.56503486 -225.75 249.65625 C-225.75570007 248.76435974 -225.76140015 247.87246948 -225.76727295 246.95355225 C-225.77666574 245.07109743 -225.78323398 243.1886266 -225.78710938 241.30615234 C-225.79670783 238.50196417 -225.8277415 235.69854473 -225.859375 232.89453125 C-225.93553293 220.0757408 -224.7163759 207.82671599 -222.546875 195.203125 C-222.3155935 193.76658546 -222.08469635 192.32998398 -221.85424805 190.89331055 C-220.26610023 181.38663702 -217.69681615 172.37135187 -214.609375 163.265625 C-214.37243927 162.55922882 -214.13550354 161.85283264 -213.89138794 161.12503052 C-207.19991472 141.29791833 -198.41015931 122.48328316 -186.546875 105.203125 C-186.12664062 104.58904785 -185.70640625 103.9749707 -185.2734375 103.34228516 C-178.67091238 93.76612278 -171.85195021 84.37880102 -163.546875 76.203125 C-162.30994169 74.95697485 -161.07437495 73.70946741 -159.83984375 72.4609375 C-158.4714068 71.08328105 -157.10291603 69.70567806 -155.734375 68.328125 C-155.06083984 67.64621094 -154.38730469 66.96429688 -153.69335938 66.26171875 C-143.07877713 55.59634903 -131.39603004 46.34453796 -118.921875 37.953125 C-118.34945068 37.56535889 -117.77702637 37.17759277 -117.18725586 36.77807617 C-111.83369584 33.23429706 -106.21614434 30.20802421 -100.546875 27.203125 C-99.29173096 26.53651855 -99.29173096 26.53651855 -98.01123047 25.85644531 C-68.09751178 10.24877559 -33.90878486 0.17399269 0 0 Z " fill="#0097B2" transform="translate(225.546875,-0.203125)"/>
<path d="M0 0 C4.65528726 3.29549947 9.17891297 5.79933113 14.54345703 7.81103516 C14.54345703 7.15103516 14.54345703 6.49103516 14.54345703 5.81103516 C16.19345703 5.81103516 17.84345703 5.81103516 19.54345703 5.81103516 C21.58391532 0.38264611 22.90996579 -4.64394206 23.33251953 -10.43896484 C23.54345703 -12.18896484 23.54345703 -12.18896484 24.54345703 -13.18896484 C27.21404554 -13.33011646 29.86777941 -13.23143592 32.54345703 -13.18896484 C32.60404297 -11.89861328 32.66462891 -10.60826172 32.72705078 -9.27880859 C32.81151585 -7.56135229 32.89616081 -5.84390483 32.98095703 -4.12646484 C33.02027344 -3.27890625 33.05958984 -2.43134766 33.10009766 -1.55810547 C33.28580462 2.14174857 33.53241506 5.73688468 34.07861328 9.40478516 C34.6232241 13.39554678 34.61004595 17.22998163 34.54345703 21.24853516 C34.49337207 26.86545028 34.59905851 32.39417597 35.04345703 37.99853516 C36.00276307 51.22614935 35.62460994 64.55689244 35.54345703 77.81103516 C32.90345703 77.81103516 30.26345703 77.81103516 27.54345703 77.81103516 C25.69885258 73.10729381 24.10290101 68.40665688 22.66845703 63.56103516 C17.48355799 46.64700121 9.55597734 30.90160216 -2.45654297 17.81103516 C-2.90900391 17.31087891 -3.36146484 16.81072266 -3.82763672 16.29541016 C-15.4039837 3.62103568 -30.33034507 -6.20191092 -47.86669922 -7.42724609 C-62.3896511 -7.7223649 -73.31356316 -4.34573559 -84.19482422 5.36181641 C-94.51518591 16.10885972 -95.93400412 29.54277312 -95.72998047 43.58056641 C-95.36626104 53.73049919 -91.58392849 61.60188231 -84.45654297 68.81103516 C-78.36443528 73.98164756 -71.95761458 77.2116539 -64.45654297 79.81103516 C-56.90700675 82.45644889 -49.54037383 85.15393828 -42.30029297 88.56103516 C-39.06760352 89.98199755 -35.79152184 91.15104251 -32.45654297 92.31103516 C-27.33369172 94.0962712 -22.46498848 96.12186364 -17.56201172 98.43212891 C-13.6024621 100.19026855 -9.56802769 101.71046445 -5.51904297 103.24853516 C15.67724802 111.39455212 34.08503114 122.84587655 44.54345703 143.81103516 C46.15436572 148.08811446 47.43991478 152.37816204 48.54345703 156.81103516 C48.71780273 157.43260498 48.89214844 158.0541748 49.07177734 158.69458008 C53.11893553 176.85442187 48.16339663 197.34787299 38.54345703 212.81103516 C29.56901635 225.59712418 18.89682005 232.73484085 4.54345703 238.81103516 C3.76188232 239.14433838 2.98030762 239.4776416 2.17504883 239.82104492 C-15.62789883 246.51841506 -39.43395254 244.6497362 -56.66748047 237.01025391 C-66.07985437 232.5841906 -74.99065122 227.24608643 -83.25341797 220.92822266 C-83.91784912 220.42460205 -84.58228027 219.92098145 -85.2668457 219.40209961 C-86.5739974 218.40416316 -87.87100647 217.39275877 -89.15600586 216.36645508 C-92.17291369 214.05369475 -93.9265879 212.88549165 -97.76513672 212.34619141 C-100.68078089 212.5733752 -100.68078089 212.5733752 -102.70654297 215.18603516 C-106.97314736 222.76324129 -106.90437896 232.35420746 -107.45654297 240.81103516 C-110.42654297 240.81103516 -113.39654297 240.81103516 -116.45654297 240.81103516 C-116.72316303 231.50649865 -116.98417267 222.20182381 -117.23884583 212.89695263 C-117.35737991 208.57193203 -117.47754189 204.24697219 -117.60205078 199.92211914 C-118.27353816 176.54525492 -118.60066103 153.19765512 -118.45654297 129.81103516 C-115.48654297 129.81103516 -112.51654297 129.81103516 -109.45654297 129.81103516 C-109.43076172 130.41947266 -109.40498047 131.02791016 -109.37841797 131.65478516 C-107.2791668 164.09775783 -89.22159237 195.28613386 -65.45654297 216.81103516 C-58.41505061 222.7076695 -49.98418478 225.69642891 -41.45654297 228.81103516 C-40.04308594 229.38337891 -40.04308594 229.38337891 -38.60107422 229.96728516 C-34.30790363 231.11924149 -30.25709146 231.11055935 -25.83154297 231.06103516 C-24.49422119 231.04762085 -24.49422119 231.04762085 -23.12988281 231.03393555 C-7.61508596 230.7620674 6.1383673 227.14331395 17.64111328 216.11181641 C26.91522633 204.89528132 28.7083157 191.19701461 27.82910156 177.17919922 C26.84442688 169.01565694 22.93448063 160.80612772 16.69189453 155.38134766 C6.93645109 148.25100536 -3.35661044 143.39111869 -14.45654297 138.81103516 C-15.44009766 138.39337891 -16.42365234 137.97572266 -17.43701172 137.54541016 C-23.43100663 135.00916407 -29.47469113 132.59887733 -35.51904297 130.18603516 C-37.2417023 129.49593869 -38.96435842 128.80583418 -40.68701172 128.11572266 C-43.71349943 126.90385304 -46.74221908 125.69847953 -49.77539062 124.50341797 C-68.64877587 117.06628257 -85.03675943 110.36014411 -99.45654297 95.81103516 C-100.12298828 95.17810547 -100.78943359 94.54517578 -101.47607422 93.89306641 C-105.50186965 89.77639523 -108.10310442 85.08356181 -110.70654297 79.99853516 C-111.0362207 79.35891846 -111.36589844 78.71930176 -111.70556641 78.06030273 C-116.59066291 68.04385486 -117.94454631 58.51036306 -117.83154297 47.43603516 C-117.84314453 46.30681641 -117.85474609 45.17759766 -117.86669922 44.01416016 C-117.8048248 25.98807856 -112.16488983 10.19826051 -99.33544922 -2.56396484 C-69.67282277 -29.61048449 -29.61135783 -21.10391089 0 0 Z " fill="#010404" transform="translate(264.45654296875,125.18896484375)"/>
<path d="M0 0 C5.49761062 0.22439227 8.46132392 1.48513918 12.4921875 5.25390625 C18.24482157 11.91563534 18.35129168 20.86439433 18.28125 29.234375 C17.23435158 43.25118163 10.61975878 55.11766716 1 65 C1.70125 64.86722656 2.4025 64.73445313 3.125 64.59765625 C4.07375 64.42105469 5.0225 64.24445313 6 64.0625 C6.928125 63.88847656 7.85625 63.71445313 8.8125 63.53515625 C16.05126332 62.31982466 23.04253698 61.79250703 30.375 61.75 C31.25671875 61.729375 32.1384375 61.70875 33.046875 61.6875 C42.19863332 61.633824 49.86726544 63.34799523 56.8203125 69.5 C58 71 58 71 58 74 C58.66 74 59.32 74 60 74 C60.42064893 80.09940955 60.08964656 83.13663653 56 88 C52.45345376 91.45321608 49.94488681 92.71471807 45 93 C41.98098811 92.78223521 38.99531948 92.43265726 36 92 C36 92.99 36 93.98 36 95 C23.90222955 95.33768469 12.73562257 95.31358755 1 92 C1.6290625 92.4846875 2.258125 92.969375 2.90625 93.46875 C16.26037367 103.92679866 27.4220166 115.78517423 31 133 C31.68396811 139.45445766 32.0321983 145.57738849 28 151 C24.86553082 153.68668787 21.55413952 154.89652539 17.37109375 154.73046875 C2.42849226 150.12706434 -7.48177642 130.70724001 -14.60546875 118.17578125 C-15.81585262 115.87886134 -15.81585262 115.87886134 -18 115 C-17.89558594 115.804375 -17.89558594 115.804375 -17.7890625 116.625 C-17.0464339 127.37543308 -21.64136638 139.30440019 -28.55078125 147.51953125 C-32.66342655 151.72085893 -35.87457386 154.14391357 -41.75 154.5 C-44.75717083 154.47396389 -46.42350993 154.41297218 -48.88671875 152.6484375 C-50.48144038 150.82475081 -51.76464605 149.08586243 -53 147 C-53.54011719 146.11054688 -54.08023438 145.22109375 -54.63671875 144.3046875 C-56.35586532 140.13735799 -56.45628921 136.70922698 -56.375 132.25 C-56.36484863 131.44941162 -56.35469727 130.64882324 -56.34423828 129.82397461 C-56.01332491 117.18385347 -51.0626203 106.69952377 -43 97 C-44.02738281 97.40992188 -45.05476563 97.81984375 -46.11328125 98.2421875 C-53.37845202 101.0855387 -60.28267652 103.59804608 -68.05859375 104.67578125 C-70.00051711 104.80685955 -70.00051711 104.80685955 -71 106 C-79.89282778 106.6198754 -87.18822982 106.90143528 -94.3125 101.125 C-97.86951332 96.64579804 -98.57640198 92.66795279 -98 87 C-95.88142932 79.91913961 -90.92936139 75.1653302 -85 71 C-78.29085746 67.54588656 -71.80673757 65.86199606 -64.26171875 65.90234375 C-62.66166992 65.90717773 -62.66166992 65.90717773 -61.02929688 65.91210938 C-59.37510742 65.92467773 -59.37510742 65.92467773 -57.6875 65.9375 C-56.56537109 65.94201172 -55.44324219 65.94652344 -54.28710938 65.95117188 C-51.5246849 65.96292687 -48.76237002 65.97935923 -46 66 C-46 65.34 -46 64.68 -46 64 C-46.66 63.814375 -47.32 63.62875 -48 63.4375 C-52.33290682 61.36131548 -55.51010268 58.26151958 -59 55 C-59.845625 54.21625 -60.69125 53.4325 -61.5625 52.625 C-67.44291927 46.29224079 -73.21674571 39.85617661 -74.625 31.125 C-74.43790499 26.50998969 -72.14359689 23.73031571 -68.9921875 20.515625 C-67 19 -67 19 -63.5625 18.25 C-54.81338641 20.09191865 -48.68878127 25.2898187 -42 31 C-41.11441406 31.75023437 -40.22882813 32.50046875 -39.31640625 33.2734375 C-34.47203792 37.49156505 -30.36293824 41.50720088 -27 47 C-27 47.66 -27 48.32 -27 49 C-26.34 49 -25.68 49 -25 49 C-25.03480469 48.36835938 -25.06960937 47.73671875 -25.10546875 47.0859375 C-25.5355623 32.87236978 -22.09283767 18.3880515 -12.75390625 7.34375 C-7.25290919 2.07466682 -7.25290919 2.07466682 -2.72265625 1.8046875 C-1.37494141 1.90136719 -1.37494141 1.90136719 0 2 C0 1.34 0 0.68 0 0 Z " fill="#7DB2D2" transform="translate(110,163)"/>
<path d="M0 0 C-1.34268364 3.48473243 -2.86033096 6.80195955 -4.5625 10.125 C-7.18645729 15.24833501 -8.17591893 19.01565624 -8.25 24.8125 C-8.27578125 26.01519531 -8.3015625 27.21789062 -8.328125 28.45703125 C-7.9702445 32.3212885 -6.89340528 34.64829015 -5 38 C-4.67 38.99 -4.34 39.98 -4 41 C0.80471313 41.56526037 3.91658174 41.82433998 7.875 38.8125 C14.56328009 28.84926897 13.64675704 14.53520979 14 3 C16.20622598 5.20622598 16.71284062 6.65572438 17.75 9.5625 C21.47005569 19.10286423 28.04932107 29.78107408 37.4375 34.5 C38.613125 34.995 39.78875 35.49 41 36 C39.49358831 41.88353244 36.36771788 46.28100429 32.9375 51.1875 C32.35258789 52.03175537 31.76767578 52.87601074 31.16503906 53.74584961 C26.72510624 60.09548995 22.10233162 66.16331411 17 72 C15.98099609 73.18335938 15.98099609 73.18335938 14.94140625 74.390625 C0.22554325 91.13160676 -16.13254345 105.81005203 -34.625 118.25 C-35.19742432 118.63776611 -35.76984863 119.02553223 -36.35961914 119.42504883 C-45.25220512 125.3114796 -54.83848657 130.01747355 -64.4375 134.625 C-65.38431641 135.0890625 -66.33113281 135.553125 -67.30664062 136.03125 C-83.88569253 144 -83.88569253 144 -91 144 C-92.5703125 142.171875 -92.5703125 142.171875 -94.125 139.75 C-94.64320313 138.96109375 -95.16140625 138.1721875 -95.6953125 137.359375 C-96.92734802 135.13138263 -97.77681679 133.53286995 -98 131 C-97.06640625 129.421875 -97.06640625 129.421875 -95.5625 127.75 C-82.56035489 111.44427956 -78.94439876 91.18331823 -77.578125 70.91796875 C-76.02574559 48.08906185 -71.32257085 31.49780012 -56 14 C-55.47535156 13.34644531 -54.95070313 12.69289063 -54.41015625 12.01953125 C-52.9375 10.3125 -52.9375 10.3125 -50 8 C-47.65631386 8.25038138 -45.32281967 8.59991961 -43 9 C-28.60677588 10.09844383 -16.72186402 7.90615197 -3.92578125 0.953125 C-2 0 -2 0 0 0 Z " fill="#0197B2" transform="translate(403,319)"/>
<path d="M0 0 C-0.66 0.66 -1.32 1.32 -2 2 C4.37222009 8.2139934 10.82586931 12.9801447 18.5078125 17.37109375 C19.33023438 17.90863281 20.15265625 18.44617188 21 19 C21 19.66 21 20.32 21 21 C20.29875 21.23074219 19.5975 21.46148437 18.875 21.69921875 C5.8311321 26.18304834 -5.06485973 33.2697097 -11.84765625 45.6328125 C-15.01081485 52.13069085 -16.07735868 58.83556477 -15 66 C-13.14056946 69.66879948 -10.95742336 71.68085888 -7 73 C1.53433509 74.27934055 7.91463733 71.65173366 15 67 C22.42636068 61.12972745 28.55601331 54.49090177 34.35546875 47.01953125 C34.89816406 46.35308594 35.44085938 45.68664062 36 45 C36.33 45 36.66 45 37 45 C37.05607422 46.74023438 37.05607422 46.74023438 37.11328125 48.515625 C37.50432205 58.42553393 38.48208401 67.54754749 41.6796875 77.01171875 C42.10695693 79.66391555 41.44305913 81.38200336 40.625 83.9375 C38.12924696 93.08859447 38.23990022 102.56834257 38 112 C33.2967066 111.39498217 29.16774528 110.05759306 24.8125 108.25 C24.1532251 107.98195557 23.4939502 107.71391113 22.81469727 107.43774414 C18.97639262 105.86335391 15.19647128 104.19428925 11.4375 102.4375 C6.21214388 100.00728237 0.84545617 98.1418978 -4.59375 96.25 C-8.56279512 94.79346968 -12.33395431 93.04872738 -16.15625 91.25 C-19.38893945 89.82903761 -22.66502113 88.65999265 -26 87.5 C-41.15470174 82.17269218 -54.0343392 76.07105611 -62.31640625 61.71875 C-66.97217335 51.46632907 -66.97798605 36.42465639 -63.375 25.8125 C-62.63533932 24.18370017 -61.84387124 22.57732943 -61 21 C-60.57589844 20.1440625 -60.15179688 19.288125 -59.71484375 18.40625 C-53.6014034 7.09893971 -44.18649028 0.91383552 -32.3125 -3.3125 C-21.40653207 -5.64473347 -10.14091701 -4.43665119 0 0 Z " fill="#3FA7C2" transform="translate(233,121)"/>
<path d="M0 0 C3.36966735 2.16004317 4.76300364 4.80747908 5.6796875 8.69921875 C7.58665749 22.39684468 4.81869657 33.70632717 -3 45 C-2.21496094 44.51789063 -1.42992187 44.03578125 -0.62109375 43.5390625 C8.8537291 37.84254324 16.76492952 34.53593982 28 36 C31.25 37.8125 31.25 37.8125 33 41 C34.09351827 49.27634592 32.06084669 56.41529982 29.25 64.125 C28.65687012 65.78680298 28.65687012 65.78680298 28.05175781 67.48217773 C24.98161131 75.84130645 21.51263092 83.9928625 17.75 92.0625 C17.25532227 93.1448291 16.76064453 94.2271582 16.25097656 95.34228516 C15.77112305 96.33405762 15.29126953 97.32583008 14.796875 98.34765625 C14.37760742 99.22429932 13.95833984 100.10094238 13.52636719 101.00415039 C12 103 12 103 9.44750977 103.84472656 C5.60178067 104.08870499 3.99292624 102.34579565 1.11328125 99.9921875 C-6.33668721 92.96911187 -13.92788417 83.24149206 -16 73 C-16.03738281 74.07636719 -16.07476562 75.15273438 -16.11328125 76.26171875 C-17.17774952 101.76790337 -17.17774952 101.76790337 -24.32421875 108.87890625 C-26 110 -26 110 -29.5625 110.75 C-33.86588645 109.81107932 -35.31667461 108.44998979 -38 105 C-41.38055643 98.09604674 -41.13546276 89.90400144 -39.01953125 82.62890625 C-36.88611695 77.37086055 -34.40531454 72.54041939 -31 68 C-31.71542969 68.38671875 -32.43085938 68.7734375 -33.16796875 69.171875 C-43.73843681 74.69641458 -53.39225791 78.31647832 -65.375 78.5 C-66.12410645 78.51853027 -66.87321289 78.53706055 -67.64501953 78.55615234 C-73.25775499 78.49235704 -77.88875054 77.11124946 -82 73 C-82.87023516 68.39762229 -83.03074497 64.53020334 -80.35546875 60.55859375 C-78.31616943 58.44362469 -76.46133985 56.6079556 -74 55 C-72.68 55 -71.36 55 -70 55 C-70 54.34 -70 53.68 -70 53 C-68.60550891 52.516941 -67.20933293 52.03874483 -65.8125 51.5625 C-65.03519531 51.29566406 -64.25789063 51.02882813 -63.45703125 50.75390625 C-58.96718341 49.37625819 -54.88457737 48.88090871 -50.1875 48.9375 C-49.21167969 48.94652344 -48.23585938 48.95554687 -47.23046875 48.96484375 C-46.12638672 48.98224609 -46.12638672 48.98224609 -45 49 C-45.38333496 48.47567383 -45.76666992 47.95134766 -46.16162109 47.41113281 C-47.90250011 45.02632369 -49.6387873 42.63820819 -51.375 40.25 C-51.97828125 39.425 -52.5815625 38.6 -53.203125 37.75 C-54.07324219 36.55117188 -54.07324219 36.55117188 -54.9609375 35.328125 C-55.49509277 34.5949707 -56.02924805 33.86181641 -56.57958984 33.10644531 C-59.36956698 28.9689543 -60.63568954 26.08551635 -60 21 C-58.5 18.625 -58.5 18.625 -56 17 C-51.88343491 16.23250481 -49.57960769 16.13224531 -45.90234375 18.15234375 C-38.39907989 23.72191711 -30.19441423 31.20837866 -25 39 C-24.91363281 37.99582031 -24.82726562 36.99164063 -24.73828125 35.95703125 C-23.52113012 23.51640115 -20.97373104 11.3415069 -12 2 C-7.97535022 -0.68309985 -4.72707186 -0.67651934 0 0 Z " fill="#7BB2D1" transform="translate(434,251)"/>
<path d="M0 0 C4.75202591 2.38083246 7.35122644 6.01041069 9.4375 10.8125 C11.88856799 18.34301526 11.32980149 26.18553682 11 34 C11.76183594 33.31164062 11.76183594 33.31164062 12.5390625 32.609375 C23.31932773 23 23.31932773 23 29 23 C29 22.34 29 21.68 29 21 C32.04940673 19.98353109 34.30369903 19.80155324 37.5 19.75 C38.4590625 19.72421875 39.418125 19.6984375 40.40625 19.671875 C43 20 43 20 44.78125 21.328125 C47.47574396 25.024418 47.41981975 28.59189266 47 33 C43.87953297 42.08435027 38.21870933 47.93398375 29.8125 52.375 C26.91858255 53.71065421 24.18408936 54.60198883 21 55 C21.90150429 57.35226078 21.90150429 57.35226078 25.0625 58.25 C33.15352108 61.58548216 40.02098527 67.86051505 45 75 C45.72265625 77.77734375 45.72265625 77.77734375 46 80 C27.2115948 86.23509022 6.88415374 91.31498929 -13.0625 91.0625 C-14.47208984 91.04896484 -14.47208984 91.04896484 -15.91015625 91.03515625 C-16.59980469 91.02355469 -17.28945312 91.01195312 -18 91 C-18.027193 89.41676312 -18.04648306 87.83338938 -18.0625 86.25 C-18.07410156 85.36828125 -18.08570313 84.4865625 -18.09765625 83.578125 C-18.00826198 81.2181162 -17.66912821 79.25501476 -17 77 C-18.06927734 77.79664063 -18.06927734 77.79664063 -19.16015625 78.609375 C-22.0871194 80.76815805 -25.03861321 82.88875282 -28 85 C-28.62777344 85.46921875 -29.25554687 85.9384375 -29.90234375 86.421875 C-34.85949342 89.76704202 -40.25643868 90.02693422 -46 89 C-48.6875 87 -48.6875 87 -50 84 C-51.00234061 76.35715283 -48.38224102 71.53228841 -44.1875 65.3125 C-41.41569411 62.3823052 -38.35274598 60.217013 -35 58 C-34.01 57.34 -33.02 56.68 -32 56 C-32.58007812 55.81824219 -33.16015625 55.63648438 -33.7578125 55.44921875 C-41.6183163 52.91984872 -46.99458408 50.72155853 -52 44 C-53.98853571 40.02292857 -53.51729937 35.32537065 -53 31 C-51.1875 27.8125 -51.1875 27.8125 -48 26 C-38.06089612 23.89369984 -30.40069105 28.60353141 -22.2421875 33.734375 C-20.13430136 35.12201164 -18.05549107 36.53624121 -16 38 C-16.30759178 36.02006459 -16.6212068 34.04106401 -16.9375 32.0625 C-17.11152344 30.96035156 -17.28554687 29.85820312 -17.46484375 28.72265625 C-17.71845136 26.09573071 -17.71845136 26.09573071 -19 25 C-19.73664774 17.83346988 -19.94777124 11.50870671 -15.48046875 5.58984375 C-11.09207369 0.87724009 -6.48312868 -1.59256739 0 0 Z " fill="#7CB2D1" transform="translate(266,384)"/>
<path d="M0 0 C2.67329985 0.79073659 4.77142287 1.78925253 7.18017578 3.18603516 C8.06261963 3.69207275 8.94506348 4.19811035 9.85424805 4.71948242 C11.28015259 5.54984009 11.28015259 5.54984009 12.73486328 6.39697266 C14.80850393 7.58678284 16.88274778 8.77554221 18.95751953 9.96337891 C20.04436035 10.58744629 21.13120117 11.21151367 22.25097656 11.85449219 C27.86612921 15.06000236 33.51831366 18.19822938 39.17236328 21.33447266 C40.30834961 21.96538818 41.44433594 22.59630371 42.61474609 23.24633789 C49.71907768 27.18624367 56.84499049 31.08443812 63.98486328 34.95947266 C73.03616667 39.87508887 82.00536134 44.92250105 90.91845703 50.08447266 C93.75852952 51.72664866 96.61069637 53.31855015 99.52001953 54.83447266 C107.10146366 58.88272888 107.10146366 58.88272888 108.69970703 61.67822266 C109.23486328 63.58447266 109.23486328 63.58447266 109.60986328 66.77197266 C112.11619063 69.2783 113.12791568 69.1532699 116.60986328 69.27197266 C125.78592853 69.11563078 131.9292521 63.45049216 138.60986328 57.77197266 C139.26986328 57.77197266 139.92986328 57.77197266 140.60986328 57.77197266 C140.27986328 62.39197266 139.94986328 67.01197266 139.60986328 71.77197266 C105.49410856 72.34659859 105.49410856 72.34659859 89.32104492 69.28149414 C87.22555869 68.88768237 85.12457429 68.52306017 83.02172852 68.1706543 C73.27431002 66.50631156 64.03136491 64.00779064 54.67236328 60.83447266 C53.9659671 60.59753693 53.25957092 60.3606012 52.5317688 60.1164856 C33.32547233 53.63453213 15.05597795 45.22106927 -1.75341797 33.82568359 C-3.29553608 32.83287605 -4.92069122 31.97259889 -6.54638672 31.12353516 C-9.43470153 29.52522612 -11.34796632 28.37193678 -13.39013672 25.77197266 C-14.50248474 20.68996557 -14.6167763 15.95135375 -14.39013672 10.77197266 C-13.60638672 11.57634766 -12.82263672 12.38072266 -12.01513672 13.20947266 C-7.95193136 16.66710414 -3.54392768 16.65993372 1.60986328 16.77197266 C2.36744572 14.07394976 2.36744572 14.07394976 1.60986328 10.77197266 C-1.14661848 8.07997 -4.19507012 5.91469589 -7.39013672 3.77197266 C-3.07810051 -0.29366148 -3.07810051 -0.29366148 0 0 Z " fill="#0197B2" transform="translate(108.39013671875,403.22802734375)"/>
<path d="M0 0 C3.5625 0.375 3.5625 0.375 5.4375 2.1875 C7.31050504 5.82945424 7.79256984 9.025848 8.125 13.0625 C8.20878906 14.05636719 8.29257812 15.05023438 8.37890625 16.07421875 C8.43949219 16.83347656 8.50007813 17.59273438 8.5625 18.375 C9.119375 17.7975 9.67625 17.22 10.25 16.625 C17.27252351 9.79227443 17.27252351 9.79227443 21.625 9.4375 C26.76672514 9.94443065 30.1455588 13.81265705 33.5625 17.375 C33.22107484 20.25272631 32.98173801 21.93122123 30.9609375 24.0703125 C26.62864457 27.13135345 22.535783 29.51001887 17.5625 31.375 C19.295 31.684375 19.295 31.684375 21.0625 32 C27.13926075 33.52188857 31.68289929 37.02549912 35.5625 41.875 C36.79903115 44.96632789 36.98410276 47.07244502 36.5625 50.375 C35.32421875 52.52734375 35.32421875 52.52734375 33.5625 54.375 C26.6296769 56.10502558 19.67581062 53.5818068 13.5625 50.375 C12.20674667 49.40561324 10.86597791 48.41361596 9.5625 47.375 C9.90023437 48.0040625 10.23796875 48.633125 10.5859375 49.28125 C14.79459042 57.35797122 17.04620509 64.18460338 16.5625 73.375 C15.5625 74.375 15.5625 74.375 12.4375 74.8125 C7.21596782 74.22297217 4.88198598 72.35204525 1.5625 68.375 C-2.51095555 62.11971998 -4.39120865 55.71465575 -5.4375 48.375 C-5.85 48.89449219 -6.2625 49.41398437 -6.6875 49.94921875 C-11.65588074 55.9489821 -16.31348225 60.76653837 -24.25 61.9375 C-27.4375 61.375 -27.4375 61.375 -29.375 59.875 C-30.92607849 56.22540356 -31.52548264 53.18293925 -30.4375 49.375 C-27.01009647 44.73061985 -22.60996738 40.96123369 -17.4375 38.375 C-18.02917969 37.93929687 -18.62085938 37.50359375 -19.23046875 37.0546875 C-25.06996369 32.65363259 -29.37030491 28.47579263 -33.4375 22.375 C-33.96780303 16.43560606 -33.96780303 16.43560606 -32.4375 13.375 C-29.85649534 12.08449767 -27.7423462 12.00983227 -24.91015625 12.44921875 C-19.44356563 14.49595173 -14.90305847 18.69091426 -10.4375 22.375 C-10.41171875 21.6015625 -10.3859375 20.828125 -10.359375 20.03125 C-9.95367088 12.581047 -9.23505368 1.0074604 0 0 Z " fill="#7CB3D3" transform="translate(250.4375,265.625)"/>
<path d="M0 0 C9.08725428 13.63088142 10.94251601 34.08099904 13 50 C13.12882568 50.98945618 13.12882568 50.98945618 13.26025391 51.99890137 C13.93371692 57.52811718 14.17455798 62.97955552 14.203125 68.546875 C14.20882507 69.43876526 14.21452515 70.33065552 14.22039795 71.24957275 C14.22979074 73.13202757 14.23635898 75.0144984 14.24023438 76.89697266 C14.24983283 79.70116083 14.2808665 82.50458027 14.3125 85.30859375 C14.38691885 98.11497245 13.16709395 110.3865805 11 123 C10.86037338 123.82368073 10.72074677 124.64736145 10.57688904 125.4960022 C8.37573002 138.43640498 8.37573002 138.43640498 6 142 C5.89042969 141.37351562 5.78085937 140.74703125 5.66796875 140.1015625 C5.50941406 139.28429687 5.35085938 138.46703125 5.1875 137.625 C5.03667969 136.81289063 4.88585937 136.00078125 4.73046875 135.1640625 C4.12455058 132.64179359 4.12455058 132.64179359 1 131 C-1.73612517 130.7192001 -1.73612517 130.7192001 -4.75 130.8125 C-5.75546875 130.81894531 -6.7609375 130.82539063 -7.796875 130.83203125 C-11.24368204 131.01277845 -14.59171202 131.4647789 -18 132 C-17.51789063 130.87722656 -17.03578125 129.75445312 -16.5390625 128.59765625 C-15.90064358 127.08610557 -15.26264528 125.5743772 -14.625 124.0625 C-14.14933594 122.95938477 -14.14933594 122.95938477 -13.6640625 121.83398438 C-13.2 120.72700195 -13.2 120.72700195 -12.7265625 119.59765625 C-12.44377441 118.93258057 -12.16098633 118.26750488 -11.86962891 117.58227539 C-9.1203291 109.41850669 -8.72681456 101.75788081 -8.75617027 93.15810776 C-8.76186256 91.00016778 -8.75244041 88.84274629 -8.7389679 86.68484497 C-8.70229109 80.55436 -8.68310939 74.42404927 -8.69458008 68.29345703 C-8.72143047 47.75251117 -7.65492221 28.65842597 -1 9 C-0.73788562 7.38280371 -0.52332474 5.75657211 -0.375 4.125 C-0.30023438 3.34382812 -0.22546875 2.56265625 -0.1484375 1.7578125 C-0.09945313 1.17773438 -0.05046875 0.59765625 0 0 Z " fill="#0096B1" transform="translate(461,157)"/>
<path d="M0 0 C4.55555556 0.55555556 4.55555556 0.55555556 6 2 C6.08631874 3.34267413 6.10706473 4.68974322 6.09765625 6.03515625 C6.09443359 6.84404297 6.09121094 7.65292969 6.08789062 8.48632812 C6.07532227 9.7615332 6.07532227 9.7615332 6.0625 11.0625 C6.05798828 11.91650391 6.05347656 12.77050781 6.04882812 13.65039062 C6.03700373 15.76695663 6.01906769 17.88348685 6 20 C6.66 19.01 7.32 18.02 8 17 C8.66 17 9.32 17 10 17 C10.2475 16.38125 10.495 15.7625 10.75 15.125 C12.28822496 12.51001756 13.12350424 11.93291754 16 11 C19.625 10.75 19.625 10.75 23 11 C25 13 25 13 25.4375 15.3125 C24.55403017 20.73952895 19.14429738 23.80297059 15 27 C15.97453125 27.65355469 15.97453125 27.65355469 16.96875 28.3203125 C23.85776373 33.23192414 23.85776373 33.23192414 24.625 37.375 C24 40 24 40 23 41 C18.94919105 41.10502097 14.67234664 41.11612562 11.2265625 38.81640625 C9.875 37.4375 9.875 37.4375 8 35 C8 39.29 8 43.58 8 48 C4.58971669 45.95383002 1.60201218 44.03888976 -1.5 41.625 C-2.2321875 41.06039062 -2.964375 40.49578125 -3.71875 39.9140625 C-6.30827559 37.74134411 -8.63311085 35.41470509 -11 33 C-12.25531885 31.74229914 -13.51192937 30.48588675 -14.76953125 29.23046875 C-18.51302083 25.48697917 -22.25651042 21.74348958 -26 18 C-25.34 16.68 -24.68 15.36 -24 14 C-17.18401613 13.66721236 -12.07877934 13.75798435 -6 17 C-6.12375 15.2365625 -6.12375 15.2365625 -6.25 13.4375 C-6.26719687 8.59658205 -4.69637207 5.96525304 -2 2 C-1.34 1.34 -0.68 0.68 0 0 Z " fill="#76B1D0" transform="translate(87,380)"/>
<path d="M0 0 C4.10442094 0.52874988 6.6955706 1.94194198 9.5625 5 C8.95287657 10.48661088 8.95287657 10.48661088 7.34765625 12.59765625 C2.20873255 16.6345788 -6.06699957 17.29216662 -12.4375 18 C-11.83421875 18.38671875 -11.2309375 18.7734375 -10.609375 19.171875 C0.0597329 26.12400338 0.0597329 26.12400338 1.0859375 29.953125 C1.4375 32.125 1.4375 32.125 1.5625 36 C-0.81077719 38.37327719 -1.38724106 38.2957818 -4.625 38.3125 C-10.91283302 38.14119686 -15.40310519 36.23215305 -19.875 31.8125 C-20.720625 30.884375 -21.56625 29.95625 -22.4375 29 C-22.2725 29.763125 -22.1075 30.52625 -21.9375 31.3125 C-21.50805034 34.47969123 -21.27211556 37.49749329 -21.1875 40.6875 C-21.14882813 42.08548828 -21.14882813 42.08548828 -21.109375 43.51171875 C-21.4375 46 -21.4375 46 -22.8046875 47.796875 C-24.4375 49 -24.4375 49 -26.8125 49.5625 C-30.79664346 48.70875497 -32.12519272 46.21153789 -34.4375 43 C-35.98796663 39.89906673 -35.72249646 37.42356502 -35.4375 34 C-33.78515625 31.26171875 -33.78515625 31.26171875 -31.5 28.6875 C-30.67242187 27.74132812 -29.84484375 26.79515625 -28.9921875 25.8203125 C-28.14914063 24.88960937 -27.30609375 23.95890625 -26.4375 23 C-25.71820313 22.17242187 -24.99890625 21.34484375 -24.2578125 20.4921875 C-22.02791233 17.9518983 -19.73594966 15.47836026 -17.4375 13 C-16.9744043 12.47100098 -16.51130859 11.94200195 -16.03417969 11.39697266 C-6.26881699 0.24254351 -6.26881699 0.24254351 0 0 Z " fill="#7AB3D2" transform="translate(81.4375,61)"/>
<path d="M0 0 C10.00869307 4.39775908 19.55061533 19.83512578 25 29 C25.42578125 31.3515625 25.42578125 31.3515625 25.3125 33.625 C25.25449219 34.90310547 25.25449219 34.90310547 25.1953125 36.20703125 C25.13085938 37.12871094 25.06640625 38.05039063 25 39 C24.95617187 40.03511719 24.91234375 41.07023437 24.8671875 42.13671875 C24.33840363 51.48239891 24.33840363 51.48239891 21 56 C18.125 57.125 18.125 57.125 15 57 C12.125 55.1875 12.125 55.1875 10 52 C8.80662521 45.42518039 10.33985434 39.98532774 13 34 C11.71416016 34.54140625 11.71416016 34.54140625 10.40234375 35.09375 C-1.37725914 39.87464858 -1.37725914 39.87464858 -7 39 C-9 37 -9 37 -9.5 33.6875 C-9 30 -9 30 -6.5625 27.3125 C-1.53585448 23.70668777 3.78180883 21 10 21 C10 20.34 10 19.68 10 19 C9.01 18.67 8.02 18.34 7 18 C3.4728779 13.63452554 -0.48534921 8.63814127 -0.4375 2.8125 C-0.293125 1.884375 -0.14875 0.95625 0 0 Z " fill="#79B1D1" transform="translate(411,76)"/>
<path d="M0 0 C-1.09748884 2.37789248 -2.29479644 4.41678117 -3.8125 6.5625 C-9.85593953 15.46862142 -12.02379593 24.27686142 -12.5625 34.8125 C-12.62727539 35.99489258 -12.62727539 35.99489258 -12.69335938 37.20117188 C-12.79878321 39.13394215 -12.89983094 41.06695026 -13 43 C-21.99069827 39.86799446 -30.22433698 35.96255521 -35.1640625 27.42578125 C-36.87431931 22.46283975 -36.51221191 17.16602301 -36 12 C-35.67 11.34 -35.34 10.68 -35 10 C-36.2375 10.04125 -37.475 10.0825 -38.75 10.125 C-42.01637962 10.13658291 -44.2146947 9.8568702 -47 8 C-46.34 7.67 -45.68 7.34 -45 7 C-44.01 7.33 -43.02 7.66 -42 8 C-39.62653255 8.0949387 -37.25036046 8.12987754 -34.875 8.125 C-33.61429688 8.12757813 -32.35359375 8.13015625 -31.0546875 8.1328125 C-28.12485868 8.35010022 -28.12485868 8.35010022 -27 7 C-24.69333434 6.53271418 -22.37927107 6.10178773 -20.0625 5.6875 C-14.35019284 4.62159315 -9.18443051 3.15283575 -3.85546875 0.76953125 C-2 0 -2 0 0 0 Z " fill="#2198BA" transform="translate(67,260)"/>
<path d="M0 0 C4.39388917 1.47112476 5.79342727 4.68766563 7.8125 8.5625 C11.05556094 14.511283 14.63329991 19.80053071 19 25 C19.47566406 25.59683594 19.95132813 26.19367188 20.44140625 26.80859375 C22.50082876 29.37211371 24.23750132 31.15833422 27 33 C27 35.25 27 35.25 26 38 C19.70103916 42.3818858 12.55851778 43.89656224 5 43 C-0.38767715 41.20084828 -5.05574944 38.04285683 -9 34 C-9.50253872 30.05148145 -8.58677821 27.67878545 -6.6875 24.25 C-2.50354389 16.23766479 -0.54656645 9.02776999 0 0 Z " fill="#2198BA" transform="translate(92,278)"/>
<path d="M0 0 C4.75 0.75 4.75 0.75 7 3 C7.625 5.125 7.625 5.125 8 7 C8.70125 6.34 9.4025 5.68 10.125 5 C13.44377677 2.69128572 15.04644974 2.55073292 19 3 C20 4 20 4 20.375 6.3125 C20 9 20 9 17.5 11.3125 C16.675 11.869375 15.85 12.42625 15 13 C15.49371094 13.29132812 15.98742187 13.58265625 16.49609375 13.8828125 C21.7941681 17.27272727 21.7941681 17.27272727 22.9375 21.3125 C22.958125 22.199375 22.97875 23.08625 23 24 C13.58997722 24.3690205 13.58997722 24.3690205 9 22 C9.33 22.70125 9.66 23.4025 10 24.125 C11.09044562 27.26003116 11.15322643 29.70563182 11 33 C8.525 33.495 8.525 33.495 6 34 C4.09598862 32.09598862 3.06479561 30.66574314 2.80078125 27.953125 C2.8113422 25.96766727 2.90084957 23.9830086 3 22 C2.39865234 22.63228516 2.39865234 22.63228516 1.78515625 23.27734375 C-2.90956687 27.80173678 -6.52060152 28.97061497 -13 29 C-12.75675684 24.7837853 -12.62862242 22.64516511 -9.625 19.5625 C-7 18 -7 18 -4 18 C-5.37858851 15.24282298 -7.37466315 14.53678254 -10 13 C-10.66 12.34 -11.32 11.68 -12 11 C-11.625 8.375 -11.625 8.375 -11 6 C-7.04179141 6.56545837 -4.3340947 7.80902348 -1 10 C-1.020625 8.72125 -1.04125 7.4425 -1.0625 6.125 C-1.125 2.25 -1.125 2.25 0 0 Z " fill="#76B0CF" transform="translate(212,15)"/>
<path d="M0 0 C7.72075623 0.03164244 12.47280536 1.54397096 18 7 C24.31063816 13.67525281 26.4852716 20.82997858 26.265625 29.9453125 C25.67636211 34.50343424 24.04941859 38.90116282 22 43 C21.34 43 20.68 43 20 43 C14.69057387 33.72235978 9.55824566 24.39275911 4.9375 14.75 C4.55601807 13.96520264 4.17453613 13.18040527 3.78149414 12.37182617 C1.83407763 8.2411993 0.47612937 4.60014226 0 0 Z " fill="#1D98BA" transform="translate(15,321)"/>
<path d="M0 0 C1.2551966 3.7655898 0.54082157 5.03296959 -0.765625 8.734375 C-1.16136719 9.86617188 -1.55710937 10.99796875 -1.96484375 12.1640625 C-2.38894531 13.34742188 -2.81304687 14.53078125 -3.25 15.75 C-3.65863281 16.91789062 -4.06726563 18.08578125 -4.48828125 19.2890625 C-6.48307312 24.94631791 -8.53668 30.52951012 -11 36 C-13.72186234 34.63906883 -14.00344243 33.12573704 -15.25 30.375 C-18.86068529 22.95244755 -23.65691493 18.13487839 -30 13 C-30 12.67 -30 12.34 -30 12 C-29.18917969 11.97421875 -28.37835938 11.9484375 -27.54296875 11.921875 C-19.29402306 11.4993446 -10.39547407 10.96955604 -3.984375 5.1796875 C-2.12389033 3.09427807 -2.12389033 3.09427807 0 0 Z " fill="#0598B3" transform="translate(466,300)"/>
<path d="M0 0 C-0.19335938 0.58523437 -0.38671875 1.17046875 -0.5859375 1.7734375 C-3.29882651 10.71791314 -4.13357253 19.73432266 -5 29 C-5.66 29 -6.32 29 -7 29 C-7.90028552 27.64957173 -8.79409368 26.29450247 -9.66015625 24.921875 C-13.18844067 19.8608956 -17.60215121 15.31564601 -22 11 C-20.0862931 9.53763907 -18.16924767 8.08005754 -16.25 6.625 C-15.71117188 6.2125 -15.17234375 5.8 -14.6171875 5.375 C-9.44405073 1.46360391 -6.54186343 -0.29735743 0 0 Z " fill="#2098BA" transform="translate(90,183)"/>
<path d="M0 0 C0.33 0 0.66 0 1 0 C1.03738281 1.03898437 1.07476562 2.07796875 1.11328125 3.1484375 C1.54804829 13.06827289 2.63382535 21.55516331 7.25 30.5 C7.8275 31.655 8.405 32.81 9 34 C8.67 34.66 8.34 35.32 8 36 C7.18015625 35.31292969 6.3603125 34.62585938 5.515625 33.91796875 C4.42712752 33.00775965 3.33858339 32.09760635 2.25 31.1875 C1.71117187 30.73568359 1.17234375 30.28386719 0.6171875 29.81835938 C-1.65650116 27.91899751 -3.90647709 26.06442344 -6.34765625 24.3828125 C-8 23 -8 23 -8.6875 19.6875 C-8.44319707 13.75760156 -4.30666114 4.30666114 0 0 Z " fill="#09799F" transform="translate(270,79)"/>
<path d="M0 0 C0.54938232 0.11593506 1.09876465 0.23187012 1.66479492 0.35131836 C4.17230658 0.88031476 6.67990246 1.40891088 9.1875 1.9375 C10.48397461 2.21110352 10.48397461 2.21110352 11.80664062 2.49023438 C15.86744081 3.34595855 19.92794314 4.19907784 24 5 C25.00926479 9.15626368 25.10239579 13.04365094 25.0625 17.3125 C25.05347656 18.56675781 25.04445312 19.82101562 25.03515625 21.11328125 C25.02355469 22.06589844 25.01195312 23.01851563 25 24 C21.46954907 22.82318302 20.89079173 21.8260914 18.75 18.875 C13.7260015 12.22899779 8.29705223 6.98500481 1.50390625 2.1640625 C1.00761719 1.77992188 0.51132813 1.39578125 0 1 C0 0.67 0 0.34 0 0 Z " fill="#269ABC" transform="translate(110,254)"/>
<path d="M0 0 C0.33 0 0.66 0 1 0 C2.23839599 6.65637843 2.09139136 13.2471936 2 20 C-0.24623699 20.69969682 -2.49716414 21.38435043 -4.75 22.0625 C-6.62945312 22.63677734 -6.62945312 22.63677734 -8.546875 23.22265625 C-11.6738008 23.92656828 -13.09466046 24.16653785 -16 23 C-15.49210937 22.48953125 -14.98421875 21.9790625 -14.4609375 21.453125 C-8.85601255 15.53331663 -5.31540984 9.42199702 -2 2 C-1.34 2 -0.68 2 0 2 C0 1.34 0 0.68 0 0 Z " fill="#259ABB" transform="translate(126,205)"/>
<path d="M0 0 C-0.33 4.62 -0.66 9.24 -1 14 C-10.0719352 14.09471858 -18.98185679 14.14516104 -28 13 C-28 12.67 -28 12.34 -28 12 C-27.39414063 11.99742187 -26.78828125 11.99484375 -26.1640625 11.9921875 C-15.89284068 11.51813111 -8.12915389 0 0 0 Z " fill="#3BA7C2" transform="translate(249,461)"/>
<path d="M0 0 C1.83863505 1.11631414 3.67079723 2.24329627 5.5 3.375 C6.5209375 4.00148437 7.541875 4.62796875 8.59375 5.2734375 C9.3878125 5.84320313 10.181875 6.41296875 11 7 C11 7.66 11 8.32 11 9 C6.38 9 1.76 9 -3 9 C-2.01 6.03 -1.02 3.06 0 0 Z " fill="#259ABB" transform="translate(53,220)"/>
<path d="M0 0 C3.59634744 3.49359465 6.83451967 7.11098131 10 11 C7.69 11.33 5.38 11.66 3 12 C2.01 8.04 1.02 4.08 0 0 Z " fill="#49A9C6" transform="translate(273,460)"/>
<path d="M0 0 C0.99 0 1.98 0 3 0 C3 1.65 3 3.3 3 5 C3.99 5.33 4.98 5.66 6 6 C5.67 6.99 5.34 7.98 5 9 C4.01 8.67 3.02 8.34 2 8 C1.67 7.01 1.34 6.02 1 5 C0.67 5.66 0.34 6.32 0 7 C-1.32 7 -2.64 7 -4 7 C-4 6.01 -4 5.02 -4 4 C-3.01 4 -2.02 4 -1 4 C-0.67 2.68 -0.34 1.36 0 0 Z " fill="#3C5665" transform="translate(251,296)"/>
<path d="M0 0 C0.66 0.33 1.32 0.66 2 1 C-2.95 5.95 -7.9 10.9 -13 16 C-13 11.93645091 -11.47015238 10.94829419 -8.75 8 C-7.96109375 7.13375 -7.1721875 6.2675 -6.359375 5.375 C-4.3351828 3.33740256 -2.34982916 1.63841299 0 0 Z " fill="#0D2227" transform="translate(171,118)"/>
<path d="M0 0 C0.99 0 1.98 0 3 0 C3 2.97 3 5.94 3 9 C2.01 9 1.02 9 0 9 C0 8.01 0 7.02 0 6 C-1.32 6.33 -2.64 6.66 -4 7 C-4.33 6.01 -4.66 5.02 -5 4 C-3.35 4 -1.7 4 0 4 C0 2.68 0 1.36 0 0 Z " fill="#3B5564" transform="translate(421,301)"/>
<path d="M0 0 C0.33 0 0.66 0 1 0 C1.29694323 16.0349345 1.29694323 16.0349345 -2.0625 21.125 C-2.701875 21.74375 -3.34125 22.3625 -4 23 C-3.18305433 18.03487387 -2.31506436 13.07966957 -1.4375 8.125 C-1.29892578 7.34125 -1.16035156 6.5575 -1.01757812 5.75 C-0.67864717 3.83328703 -0.33936001 1.91663705 0 0 Z " fill="#298AAF" transform="translate(303,89)"/>
<path d="M0 0 C2.6855594 2.6855594 3.06049974 5.37621328 4 9 C3.01 8.67 2.02 8.34 1 8 C1 11.3 1 14.6 1 18 C0.67 18 0.34 18 0 18 C0 12.06 0 6.12 0 0 Z " fill="#54A7C8" transform="translate(91,270)"/>
<path d="M0 0 C0.66 0.33 1.32 0.66 2 1 C-1.63 4.63 -5.26 8.26 -9 12 C-9.33 11.34 -9.66 10.68 -10 10 C-3.84965831 2.51708428 -3.84965831 2.51708428 0 0 Z " fill="#5FACCB" transform="translate(104,165)"/>
<path d="M0 0 C-1.40844718 3.21524305 -3.10344786 5.32183868 -5.625 7.75 C-6.57246094 8.67039063 -6.57246094 8.67039063 -7.5390625 9.609375 C-8.02117188 10.06828125 -8.50328125 10.5271875 -9 11 C-9 7.25983417 -8.0658409 6.54723807 -5.625 3.8125 C-4.99851562 3.09707031 -4.37203125 2.38164062 -3.7265625 1.64453125 C-2 0 -2 0 0 0 Z " fill="#66AECD" transform="translate(24,236)"/>
<path d="M0 0 C0.66 0 1.32 0 2 0 C0.34908222 4.29238623 -2.73754566 6.8793915 -6 10 C-6.66 9.67 -7.32 9.34 -8 9 C-6.85459775 7.68712379 -5.70866567 6.37470979 -4.5625 5.0625 C-3.92441406 4.33160156 -3.28632813 3.60070312 -2.62890625 2.84765625 C-1.77458541 1.87860647 -0.91348825 0.91348825 0 0 Z " fill="#33889E" transform="translate(184,126)"/>
<path d="M0 0 C0.66 0.33 1.32 0.66 2 1 C-0.97 3.97 -3.94 6.94 -7 10 C-7 7 -7 7 -4.625 4.4375 C-3.75875 3.633125 -2.8925 2.82875 -2 2 C-1.34 1.34 -0.68 0.68 0 0 Z " fill="#6EB1CF" transform="translate(228,444)"/>
<path d="M0 0 C-1.49097658 3.7952131 -3.75700849 5.61042731 -7 8 C-4.18918919 0 -4.18918919 0 0 0 Z " fill="#5EA3C5" transform="translate(425,252)"/>
<path d="M0 0 C-2.36689329 2.19219402 -3.51727269 2.9871902 -6.796875 3.07421875 C-7.77140625 2.94660156 -8.7459375 2.81898438 -9.75 2.6875 C-10.73484375 2.56761719 -11.7196875 2.44773437 -12.734375 2.32421875 C-13.48203125 2.21722656 -14.2296875 2.11023438 -15 2 C-15 1.67 -15 1.34 -15 1 C-13.43784452 0.83013455 -11.8752548 0.66426036 -10.3125 0.5 C-9.44238281 0.4071875 -8.57226562 0.314375 -7.67578125 0.21875 C-5.10276661 0.00840136 -2.58015636 -0.03719144 0 0 Z " fill="#31A2BF" transform="translate(236,472)"/>
<path d="M0 0 C0 1.98 0 3.96 0 6 C-0.33 5.01 -0.66 4.02 -1 3 C-2.32 3.99 -3.64 4.98 -5 6 C-5.66 5.67 -6.32 5.34 -7 5 C-2.25 0 -2.25 0 0 0 Z " fill="#30A2BF" transform="translate(215,37)"/>
<path d="M0 0 C3 3 3 3 3.07421875 5.69921875 C2.94660156 6.68535156 2.81898437 7.67148437 2.6875 8.6875 C2.50767578 10.17830078 2.50767578 10.17830078 2.32421875 11.69921875 C2.21722656 12.45847656 2.11023438 13.21773438 2 14 C1.67 14 1.34 14 1 14 C0.67 9.38 0.34 4.76 0 0 Z " fill="#259FBB" transform="translate(94,414)"/>
<path d="M0 0 C1.4540625 0.0309375 1.4540625 0.0309375 2.9375 0.0625 C2.339375 0.330625 1.74125 0.59875 1.125 0.875 C-1.10577908 1.9518979 -1.10577908 1.9518979 -2.6875 3.6875 C-3.14125 4.14125 -3.595 4.595 -4.0625 5.0625 C-4.7225 5.0625 -5.3825 5.0625 -6.0625 5.0625 C-3.64893617 0.07446809 -3.64893617 0.07446809 0 0 Z " fill="#358BA2" transform="translate(167.0625,336.9375)"/>
<path d="M0 0 C2.32789515 2.83395931 3.07377893 4.29511572 4 8 C1.69 6.35 -0.62 4.7 -3 3 C-2.01 2.01 -1.02 1.02 0 0 Z " fill="#2E8DB2" transform="translate(275,107)"/>
</svg>
